<svg width="45" height="44" viewBox="0 0 45 44" fill="none" xmlns="http://www.w3.org/2000/svg">
<rect x="0.5" width="44" height="44" fill="#CFA63B"/>
<path d="M34.1621 18.4121C34.2922 18.4122 34.4165 18.465 34.5078 18.5576C34.5991 18.6504 34.6504 18.7761 34.6504 18.9062V31.9688C34.6504 32.6178 34.1299 33.1504 33.4854 33.1504H12.5146C11.8701 33.1504 11.3496 32.6178 11.3496 31.9688V18.9062L11.3594 18.8096C11.378 18.7152 11.4238 18.6271 11.4922 18.5576C11.5835 18.465 11.7078 18.4122 11.8379 18.4121C11.9681 18.4121 12.0932 18.4648 12.1846 18.5576C12.2759 18.6504 12.3262 18.7761 12.3262 18.9062V31.9688C12.3262 32.0209 12.3472 32.0703 12.3828 32.1064C12.4183 32.1424 12.4656 32.1621 12.5146 32.1621H33.4854C33.5344 32.1621 33.5817 32.1424 33.6172 32.1064C33.6528 32.0703 33.6738 32.0209 33.6738 31.9688V18.9062C33.6738 18.7761 33.7241 18.6504 33.8154 18.5576C33.9068 18.4648 34.0319 18.4121 34.1621 18.4121Z" fill="white" stroke="white" stroke-width="0.3"/>
<path d="M30.1035 19.0996C30.2336 19.0997 30.358 19.1525 30.4492 19.2451C30.5405 19.3379 30.5918 19.4636 30.5918 19.5938V22.5371H31.4561C31.5862 22.5371 31.7104 22.59 31.8018 22.6826C31.893 22.7754 31.9443 22.9011 31.9443 23.0312C31.9443 23.1614 31.893 23.2871 31.8018 23.3799C31.7104 23.4725 31.5862 23.5254 31.4561 23.5254H30.5918V26.6621H31.4561C31.5862 26.6621 31.7104 26.715 31.8018 26.8076C31.893 26.9004 31.9443 27.0261 31.9443 27.1562C31.9443 27.2864 31.893 27.4121 31.8018 27.5049C31.7104 27.5975 31.5862 27.6504 31.4561 27.6504H30.5918V29.9062C30.5918 30.0364 30.5405 30.1621 30.4492 30.2549C30.358 30.3475 30.2336 30.4003 30.1035 30.4004C29.9733 30.4004 29.8482 30.3477 29.7568 30.2549C29.6655 30.1621 29.6152 30.0364 29.6152 29.9062V27.6504H25.8564V29.9062C25.8564 30.0364 25.8052 30.1621 25.7139 30.2549C25.6226 30.3475 25.4982 30.4003 25.3682 30.4004C25.2379 30.4004 25.1128 30.3477 25.0215 30.2549C24.9302 30.1621 24.8799 30.0364 24.8799 29.9062V27.6504H21.1211V29.9062C21.1211 30.0364 21.0698 30.1621 20.9785 30.2549C20.8872 30.3475 20.7629 30.4003 20.6328 30.4004C20.5026 30.4004 20.3775 30.3477 20.2861 30.2549C20.1948 30.1621 20.1445 30.0364 20.1445 29.9062V27.6504H16.3857V29.9062C16.3857 30.0364 16.3345 30.1621 16.2432 30.2549C16.1519 30.3475 16.0275 30.4003 15.8975 30.4004C15.7672 30.4004 15.6421 30.3477 15.5508 30.2549C15.4595 30.1621 15.4092 30.0364 15.4092 29.9062V27.6504H14.5439C14.4139 27.6503 14.2895 27.5975 14.1982 27.5049C14.107 27.4121 14.0557 27.2864 14.0557 27.1562L14.0654 27.0596C14.0841 26.9652 14.1299 26.8771 14.1982 26.8076C14.2895 26.715 14.4139 26.6622 14.5439 26.6621H15.4092V23.5254H14.5439C14.4139 23.5253 14.2895 23.4725 14.1982 23.3799C14.107 23.2871 14.0557 23.1614 14.0557 23.0312L14.0654 22.9346C14.0841 22.8402 14.1299 22.7521 14.1982 22.6826C14.2895 22.59 14.4139 22.5372 14.5439 22.5371H15.4092V19.5938C15.4092 19.4636 15.4595 19.3379 15.5508 19.2451C15.6421 19.1523 15.7672 19.0996 15.8975 19.0996C16.0275 19.0997 16.1519 19.1525 16.2432 19.2451C16.3345 19.3379 16.3857 19.4636 16.3857 19.5938V22.5371H20.1445V19.5938C20.1445 19.4636 20.1948 19.3379 20.2861 19.2451C20.3775 19.1523 20.5025 19.0996 20.6328 19.0996C20.7629 19.0997 20.8872 19.1525 20.9785 19.2451C21.0698 19.3379 21.1211 19.4636 21.1211 19.5938V22.5371H24.8799V19.5938C24.8799 19.4636 24.9302 19.3379 25.0215 19.2451C25.1128 19.1523 25.2379 19.0996 25.3682 19.0996C25.4982 19.0997 25.6226 19.1525 25.7139 19.2451C25.8052 19.3379 25.8564 19.4636 25.8564 19.5938V22.5371H29.6152V19.5938C29.6152 19.4636 29.6655 19.3379 29.7568 19.2451C29.8482 19.1523 29.9733 19.0996 30.1035 19.0996ZM25.8564 26.6621H29.6152V23.5254H25.8564V26.6621ZM21.1211 26.6621H24.8799V23.5254H21.1211V26.6621ZM16.3857 26.6621H20.1445V23.5254H16.3857V26.6621Z" fill="white" stroke="white" stroke-width="0.3"/>
<path d="M15.2207 12.2246C15.3508 12.2246 15.4751 12.2775 15.5664 12.3701C15.6577 12.4629 15.709 12.5886 15.709 12.7188C15.709 12.8489 15.6577 12.9746 15.5664 13.0674C15.4751 13.16 15.3508 13.2129 15.2207 13.2129H12.5146C12.4656 13.2129 12.4183 13.2326 12.3828 13.2686C12.3472 13.3047 12.3262 13.3541 12.3262 13.4062V16.3496H33.6738V13.4062C33.6738 13.3275 33.667 13.2749 33.6592 13.2412C33.6561 13.2282 33.6519 13.2193 33.6494 13.2129H30.7793C30.6492 13.2129 30.5249 13.16 30.4336 13.0674C30.3423 12.9746 30.291 12.8489 30.291 12.7188C30.291 12.5886 30.3423 12.4629 30.4336 12.3701C30.5249 12.2775 30.6492 12.2246 30.7793 12.2246H33.6543C33.8909 12.2246 34.1434 12.3037 34.3369 12.5C34.5314 12.6974 34.6504 12.997 34.6504 13.4062V16.8438C34.6504 16.9739 34.5991 17.0996 34.5078 17.1924C34.4165 17.285 34.2922 17.3378 34.1621 17.3379H11.8379C11.7078 17.3378 11.5835 17.285 11.4922 17.1924C11.4009 17.0996 11.3496 16.9739 11.3496 16.8438V13.4062C11.3496 12.7572 11.8701 12.2246 12.5146 12.2246H15.2207Z" fill="white" stroke="white" stroke-width="0.3"/>
<path d="M26.7207 12.2246C26.851 12.2246 26.976 12.2773 27.0674 12.3701C27.1586 12.4629 27.209 12.5886 27.209 12.7188C27.209 12.8489 27.1586 12.9746 27.0674 13.0674C26.976 13.1602 26.851 13.2129 26.7207 13.2129H19.2793C19.1492 13.2128 19.0249 13.16 18.9336 13.0674C18.8423 12.9746 18.791 12.8489 18.791 12.7188C18.791 12.5886 18.8423 12.4629 18.9336 12.3701C19.0249 12.2775 19.1492 12.2247 19.2793 12.2246H26.7207Z" fill="white" stroke="white" stroke-width="0.3"/>
<path d="M17.25 10.8496C17.3802 10.8496 17.5053 10.9023 17.5967 10.9951C17.688 11.0879 17.7383 11.2136 17.7383 11.3438V14.0938C17.7383 14.2239 17.688 14.3496 17.5967 14.4424C17.5053 14.5352 17.3803 14.5879 17.25 14.5879C17.1199 14.5878 16.9956 14.535 16.9043 14.4424C16.813 14.3496 16.7617 14.2239 16.7617 14.0938V11.3438C16.7617 11.2136 16.813 11.0879 16.9043 10.9951C16.9956 10.9025 17.1199 10.8497 17.25 10.8496Z" fill="white" stroke="white" stroke-width="0.3"/>
<path d="M28.75 10.8496C28.8802 10.8496 29.0053 10.9023 29.0967 10.9951C29.188 11.0879 29.2383 11.2136 29.2383 11.3438V14.0938C29.2383 14.2239 29.188 14.3496 29.0967 14.4424C29.0053 14.5352 28.8802 14.5879 28.75 14.5879C28.6199 14.5878 28.4956 14.535 28.4043 14.4424C28.313 14.3496 28.2617 14.2239 28.2617 14.0938V11.3438C28.2617 11.2136 28.313 11.0879 28.4043 10.9951C28.4956 10.9025 28.6199 10.8497 28.75 10.8496Z" fill="white" stroke="white" stroke-width="0.3"/>
</svg>
