<svg width="231" height="40" viewBox="0 0 231 40" fill="none" xmlns="http://www.w3.org/2000/svg">
<path d="M22.271 28.4639C20.337 29.9229 17.966 30.5159 15.212 30.5349C15.106 30.5369 14.445 30.5389 14.335 30.5389H10.197V9.72787H14.741C18.62 9.72787 21.882 11.2649 24.116 14.3609C25.318 16.0259 25.971 18.0379 25.971 20.1699C25.973 23.6719 24.66 26.6669 22.271 28.4639ZM15.196 6.46387H6.625V33.8009H15.098C18.793 33.8009 22.332 32.8779 25.183 30.4149C27.949 28.0249 29.542 23.8399 29.542 20.2039C29.542 16.6329 27.982 13.1279 25.602 10.5639C22.918 7.66987 19.101 6.46387 15.196 6.46387Z" fill="white"/>
<path d="M57.079 24.036C55.456 28.272 51.718 31.043 47.065 31.043C42.746 31.043 39.117 28.644 37.365 24.777C36.718 23.343 36.339 21.777 36.339 20.179C36.339 18.581 36.717 17.034 37.342 15.62C39.071 11.693 42.659 9.22098 47.065 9.22098C53.174 9.22098 57.804 14.21 57.804 20.218C57.804 21.543 57.535 22.841 57.079 24.036ZM47.065 5.95898C39.173 5.95898 32.769 12.251 32.769 20.179C32.769 28.002 39.295 34.305 47.065 34.305C54.862 34.305 61.374 28.013 61.374 20.179C61.374 12.251 54.996 5.95898 47.065 5.95898Z" fill="white"/>
<path d="M98.1331 6.46191L83.602 26.5359H83.528V6.46191H79.4671L59.774 33.8009H64.292L79.8831 11.5609H79.958V33.8009H82.729L98.502 11.6089H98.576V33.8009H102.146V6.46191H98.1331Z" fill="white"/>
<path d="M130.682 24.036C129.059 28.272 125.323 31.043 120.669 31.043C116.349 31.043 112.722 28.644 110.969 24.777C110.321 23.343 109.944 21.777 109.944 20.179C109.944 18.581 110.319 17.034 110.945 15.62C112.673 11.693 116.262 9.22098 120.668 9.22098C126.777 9.22098 131.405 14.21 131.405 20.218C131.405 21.543 131.139 22.841 130.682 24.036ZM120.668 5.95898C112.775 5.95898 106.373 12.251 106.373 20.179C106.373 28.002 112.898 34.305 120.668 34.305C128.463 34.305 134.98 28.013 134.98 20.179C134.98 12.251 128.599 5.95898 120.668 5.95898Z" fill="white"/>
<path d="M150.589 18.9529C149.429 19.5399 148.147 19.6769 146.727 19.6769H142.538V9.72787H146.727C148.147 9.72787 149.43 9.86287 150.589 10.4499C152.152 11.2379 153.118 12.6539 153.118 14.7009C153.118 16.7489 152.152 18.1669 150.589 18.9529ZM146.777 6.46387H138.968V33.8009H141.811H142.537V22.9389H146.322C146.437 22.9389 147.007 22.9369 147.122 22.9349C148.822 22.8999 150.466 22.6849 151.894 22.0229C153.775 21.1549 155.137 19.7449 155.769 17.9359C156.369 16.2289 156.42 14.0819 155.921 12.1589C154.858 8.08287 151.184 6.46387 146.777 6.46387Z" fill="white"/>
<path d="M191.98 10.9459H192.054V22.1019H184.654L191.98 10.9459ZM191.106 6.46191L174.494 30.5389H164.027V6.46191H160.456V33.8009H172.242H174.127H176.604L182.401 25.3659H192.056V33.8009H195.625V6.46191H191.106Z" fill="white"/>
<path d="M219.345 6.46191V27.8889H219.269L205.316 6.46191H201.182V33.8009H204.753V11.6969H204.825L219.245 33.8009H222.914V6.46191H219.345Z" fill="white"/>
</svg>
