<?xml version="1.0" encoding="UTF-8" standalone="no"?>
<!DOCTYPE svg PUBLIC "-//W3C//DTD SVG 1.1//EN" "http://www.w3.org/Graphics/SVG/1.1/DTD/svg11.dtd">
<svg width="100%" height="100%" viewBox="0 0 259 67" version="1.1" xmlns="http://www.w3.org/2000/svg" xmlns:xlink="http://www.w3.org/1999/xlink" xml:space="preserve" xmlns:serif="http://www.serif.com/" style="fill-rule:evenodd;clip-rule:evenodd;stroke-linejoin:round;stroke-miterlimit:2;">
    <g>
        <g>
            <path d="M85.256,23.469C90.441,23.469 93.59,26.186 93.59,30.692C93.59,35.229 90.441,37.944 85.256,37.944L81.83,37.944L81.83,45.075L77.54,45.075L77.54,23.469L85.256,23.469ZM85.163,33.932C87.693,33.932 89.144,32.697 89.144,30.692C89.144,28.655 87.632,27.482 85.163,27.482L81.83,27.482L81.83,33.932L85.163,33.932Z" style="fill:rgb(0,15,158);fill-rule:nonzero;"/>
            <path d="M116.86,23.469L116.86,45.075L112.57,45.075L112.57,36.155L103.217,36.155L103.217,45.075L98.927,45.075L98.927,23.469L103.217,23.469L103.217,32.111L112.57,32.111L112.57,23.469L116.86,23.469Z" style="fill:rgb(0,15,158);fill-rule:nonzero;"/>
            <path d="M142.538,23.469L134.204,35.168L134.204,45.075L129.946,45.075L129.946,35.168L121.643,23.469L126.458,23.469L130.903,29.673C131.489,30.537 132.044,31.278 132.074,31.278L132.106,31.278C132.137,31.278 132.692,30.537 133.279,29.673L137.693,23.469L142.538,23.469Z" style="fill:rgb(0,15,158);fill-rule:nonzero;"/>
            <path d="M163,23.469L163,27.482L156.209,27.482L156.209,45.075L151.919,45.075L151.919,27.482L145.19,27.482L145.19,23.469L163,23.469Z" style="fill:rgb(0,15,158);fill-rule:nonzero;"/>
            <path d="M183.308,41.062L183.308,45.075L167.845,45.075L167.845,23.469L183.124,23.469L183.124,27.483L172.135,27.483L172.135,32.08L180.808,32.08L180.808,35.847L172.135,35.847L172.135,41.062L183.308,41.062Z" style="fill:rgb(0,15,158);fill-rule:nonzero;"/>
            <path d="M208.647,23.469L208.647,45.075L204.603,45.075L198.462,36.741C196.516,34.086 194.14,30.692 194.109,30.692L194.079,30.692C194.047,30.692 194.109,33.809 194.109,38.099L194.109,45.075L189.819,45.075L189.819,23.469L193.863,23.469L200.128,31.895C201.61,33.84 204.325,37.698 204.357,37.698L204.387,37.698C204.418,37.698 204.357,34.179 204.357,30.537L204.357,23.469L208.647,23.469Z" style="fill:rgb(0,15,158);fill-rule:nonzero;"/>
            <path d="M231.084,41.062L231.084,45.075L215.621,45.075L215.621,23.469L230.9,23.469L230.9,27.483L219.911,27.483L219.911,32.08L228.584,32.08L228.584,35.847L219.911,35.847L219.911,41.062L231.084,41.062Z" style="fill:rgb(0,15,158);fill-rule:nonzero;"/>
            <path d="M246.855,23.037C253.059,23.037 258.09,27.759 258.09,34.272C258.09,40.785 253.059,45.507 246.855,45.507C240.651,45.507 235.651,40.785 235.651,34.272C235.651,27.759 240.651,23.037 246.855,23.037M246.855,41.279C250.836,41.279 253.614,38.408 253.614,34.272C253.614,30.105 250.836,27.266 246.855,27.266C242.904,27.266 240.126,30.105 240.126,34.272C240.126,38.408 242.904,41.279 246.855,41.279" style="fill:rgb(0,15,158);fill-rule:nonzero;"/>
            <path d="M44.549,44.831C44.595,45.735 44.511,47.952 42.716,48.987L37.986,51.718C36.684,50.213 34.925,49.191 32.97,48.804L32.97,44.513C32.97,42.46 34.847,41.278 35.72,40.832C38.501,39.243 40.227,36.268 40.227,33.07C40.227,32.503 40.167,31.921 40.05,31.335L44.412,28.816C44.897,28.537 45.443,28.395 46.034,28.395C46.688,28.395 47.747,28.572 49.085,29.416L49.179,29.472C50.498,30.195 51.99,30.579 53.493,30.579L53.495,30.579C55.052,30.579 56.594,30.165 57.951,29.38C60.018,28.186 61.497,26.259 62.115,23.953C62.733,21.648 62.417,19.24 61.223,17.173C59.63,14.415 56.661,12.703 53.474,12.703C51.915,12.703 50.372,13.117 49.014,13.902C46.244,15.502 44.532,18.484 44.549,21.759C44.595,22.665 44.511,24.88 42.716,25.917L38.771,28.195C37.437,26.151 35.358,24.753 32.97,24.298L32.97,20.377C32.97,18.325 34.847,17.143 35.72,16.696C38.501,15.108 40.227,12.133 40.227,8.935C40.227,4.008 36.218,0 31.29,0C26.361,0 22.352,4.008 22.352,8.935C22.352,12.084 23.963,14.941 26.66,16.579L26.757,16.632C27.822,17.194 29.61,18.427 29.61,20.397L29.61,24.298C27.191,24.757 25.095,26.179 23.766,28.26L19.689,25.906C17.912,24.88 17.828,22.665 17.877,21.687C17.891,18.484 16.179,15.502 13.409,13.902C12.05,13.117 10.509,12.703 8.949,12.703C5.762,12.703 2.793,14.415 1.202,17.173C0.008,19.24 -0.309,21.648 0.308,23.953C0.926,26.259 2.405,28.186 4.473,29.38C7.139,30.921 10.554,30.948 13.245,29.472L13.337,29.416C14.676,28.572 15.737,28.395 16.389,28.395C16.98,28.395 17.525,28.537 17.97,28.791L22.512,31.416C22.406,31.974 22.352,32.53 22.352,33.07C22.352,36.22 23.963,39.076 26.66,40.714L26.757,40.767C27.822,41.329 29.61,42.562 29.61,44.532L29.61,48.775C27.6,49.143 25.793,50.179 24.458,51.732L19.689,48.978C17.912,47.952 17.828,45.736 17.877,44.757C17.891,41.554 16.179,38.571 13.409,36.973C12.05,36.189 10.509,35.775 8.949,35.775C5.762,35.775 2.793,37.488 1.202,40.243C0.008,42.312 -0.309,44.719 0.308,47.025C0.926,49.332 2.405,51.258 4.473,52.452C7.139,53.991 10.556,54.018 13.244,52.543L13.34,52.485C14.679,51.643 15.737,51.466 16.389,51.466C16.98,51.466 17.525,51.609 18.027,51.898L22.784,54.643C22.457,55.588 22.29,56.565 22.29,57.556C22.29,62.485 26.3,66.493 31.227,66.493C36.155,66.493 40.164,62.485 40.164,57.556C40.164,56.562 39.996,55.579 39.666,54.63L44.412,51.888C44.897,51.609 45.444,51.466 46.035,51.466C46.686,51.466 47.745,51.643 49.083,52.485L49.179,52.543C51.866,54.016 55.286,53.991 57.951,52.452C60.018,51.258 61.497,49.332 62.115,47.025C62.733,44.719 62.417,42.312 61.223,40.243C59.63,37.488 56.661,35.775 53.474,35.775C51.915,35.775 50.372,36.189 49.014,36.973C46.244,38.571 44.532,41.554 44.549,44.83" style="fill:rgb(0,15,158);fill-rule:nonzero;"/>
        </g>
    </g>
</svg>
