<svg width="97" height="58" viewBox="0 0 97 58" fill="none" xmlns="http://www.w3.org/2000/svg">
<path d="M0 17.207H97H0Z" stroke="#020200" stroke-miterlimit="10"/>
<path d="M0 40.0794H97H0Z" stroke="#020200" stroke-miterlimit="10"/>
<path d="M2.81921 6.71266H3.00457H3.73107C4.69952 6.71266 5.18407 7.212 5.18407 8.2105V11.5767H6.65233V8.2105C6.65233 7.73722 6.57761 7.31476 6.42834 6.94407C6.27874 6.5737 6.06509 6.25463 5.78689 5.98702C5.81757 5.96637 5.84602 5.94064 5.87194 5.90983C5.89737 5.87854 5.92058 5.85313 5.94141 5.83248C6.39463 5.28677 6.62149 4.48886 6.62149 3.4389C6.62149 2.37877 6.39463 1.58593 5.94141 1.06087C5.44685 0.484354 4.70985 0.196259 3.73107 0.196259H1.36621V11.5769H2.81921V6.71266ZM2.81921 1.6628H3.73107C3.96809 1.6628 4.17667 1.68377 4.3571 1.72491C4.53721 1.76604 4.68665 1.85101 4.8054 1.97966C4.92367 2.10862 5.01397 2.2884 5.07581 2.52011C5.13765 2.75168 5.16849 3.05836 5.16849 3.43873C5.16849 4.11817 5.05498 4.60241 4.82845 4.89051C4.78727 4.94213 4.69173 5.01408 4.54246 5.10651C4.39318 5.19926 4.12261 5.24564 3.73107 5.24564H3.00457H2.81921V1.6628Z" fill="#020000"/>
<path d="M14.3807 1.66292V0.211456H9.66626V11.5922H14.3807V10.1406H11.1193V6.61968H14.3807V5.16838H11.1193V1.66292H14.3807Z" fill="#020000"/>
<path d="M22.8489 1.61701V0.211456H16.9753V1.66307H21.2105L17.2225 10.1717V11.5923H23.0961V10.1407H18.8611L22.8489 1.61701Z" fill="#020000"/>
<path d="M27.2025 0.211456H25.7495V11.592H27.2025V0.211456Z" fill="#020000"/>
<path d="M34.7453 10.6813C35.1986 10.1252 35.4254 9.32772 35.4254 8.28761V3.50062C35.4254 2.46083 35.1986 1.66832 34.7453 1.12245C34.2506 0.515441 33.5139 0.211456 32.535 0.211456H30.2628V11.5922H32.535C33.5138 11.5923 34.2505 11.2887 34.7453 10.6813ZM33.957 8.28761C33.957 8.71007 33.9157 9.04454 33.8335 9.29119C33.7508 9.53847 33.6453 9.72382 33.5165 9.84722C33.3876 9.97095 33.2384 10.0505 33.0682 10.0867C32.8982 10.1229 32.7205 10.1407 32.535 10.1407H31.7158V1.66307H32.535C32.7205 1.66307 32.8982 1.67864 33.0682 1.70945C33.2384 1.7401 33.3876 1.81745 33.5165 1.94101C33.6453 2.06441 33.7508 2.24975 33.8335 2.49703C33.9157 2.744 33.957 3.07864 33.957 3.50062V8.28761Z" fill="#020000"/>
<path d="M42.8911 1.66292V0.211456H38.1766V11.5922H42.8911V10.1406H39.6296V6.61968H42.8911V5.16838H39.6296V1.66292H42.8911Z" fill="#020000"/>
<path d="M51.253 11.5768V0.196259H49.7848V7.08315L47.0028 0.196259H45.7814V11.5768H47.2345V4.68974L50.0164 11.5768H51.253Z" fill="#020000"/>
<path d="M58.9505 10.6812C59.3932 10.115 59.615 9.33248 59.615 8.33367V7.60818H58.1464V8.33367C58.1464 8.99293 58.033 9.47669 57.8067 9.78559C57.7448 9.85754 57.6493 9.93456 57.5204 10.0173C57.3914 10.0997 57.1884 10.1404 56.9099 10.1404C56.6317 10.1404 56.4252 10.0996 56.2917 10.0173C56.1578 9.93456 56.065 9.85754 56.0132 9.78559C55.7763 9.48701 55.6583 9.00325 55.6583 8.33367V3.45424C55.6583 3.01177 55.7017 2.66649 55.7893 2.41953C55.8769 2.17225 55.9874 1.99485 56.1219 1.88685C56.2558 1.77853 56.3923 1.71437 56.5311 1.69372C56.6702 1.67323 56.7966 1.6626 56.9099 1.6626C57.0126 1.6626 57.1366 1.67323 57.2813 1.69372C57.425 1.71437 57.5617 1.77853 57.6905 1.88685C57.8194 1.99485 57.9273 2.17225 58.0152 2.41953C58.1025 2.66649 58.1462 3.01177 58.1462 3.45424V4.17989H59.6148V3.45424C59.6148 2.45574 59.393 1.6734 58.9503 1.10705C58.7851 0.901375 58.5429 0.700464 58.2238 0.504639C57.9043 0.309449 57.4665 0.211456 56.9098 0.211456C56.3537 0.211456 55.9129 0.309449 55.5882 0.504639C55.2638 0.700464 55.0188 0.901375 54.854 1.10705C54.4211 1.66276 54.2047 2.44558 54.2047 3.45424V8.33367C54.2047 9.34281 54.4211 10.1252 54.854 10.6812C54.9366 10.7839 55.0371 10.8895 55.1554 10.9975C55.2736 11.1055 55.418 11.2035 55.5882 11.2909C55.7583 11.3786 55.9515 11.4507 56.1678 11.507C56.3842 11.5637 56.6314 11.592 56.9096 11.592C57.4663 11.592 57.9041 11.4918 58.2237 11.2909C58.5432 11.0903 58.7853 10.887 58.9505 10.6812Z" fill="#020000"/>
<path d="M66.7708 1.66292V0.211456H62.0565V11.5922H66.7708V10.1406H63.5097V6.61968H66.7708V5.16838H63.5097V1.66292H66.7708Z" fill="#020000"/>
<path d="M3.44146 46.6194H1.16943V58.0001H3.44146C4.4204 58.0001 5.15707 57.6964 5.65179 57.0893C6.10518 56.5332 6.33187 55.7356 6.33187 54.6955V49.9084C6.33187 48.8687 6.10518 48.0761 5.65179 47.5304C5.15707 46.9232 4.42024 46.6194 3.44146 46.6194ZM4.8633 54.6954C4.8633 55.1178 4.82196 55.4521 4.73977 55.6988C4.65711 55.9462 4.55155 56.1314 4.42278 56.2548C4.29386 56.3785 4.14474 56.4583 3.97449 56.4945C3.80455 56.5307 3.62682 56.5483 3.4413 56.5483H2.62212V48.0707H3.4413C3.62682 48.0707 3.80455 48.0864 3.97449 48.1172C4.14474 48.1477 4.29386 48.2252 4.42278 48.3488C4.55155 48.4722 4.65711 48.6574 4.73977 48.9048C4.82196 49.1518 4.8633 49.4862 4.8633 49.9082V54.6954Z" fill="#020000"/>
<path d="M3.80273 22.9038H1.43787V34.2842H2.89087V29.3275H3.80273C4.78167 29.3275 5.51851 29.0395 6.01307 28.463C6.47679 27.9279 6.70873 27.1404 6.70873 26.1004C6.70873 25.0812 6.47679 24.2987 6.01307 23.7532C5.50817 23.187 4.77134 22.9038 3.80273 22.9038ZM4.90027 27.5055C4.85893 27.5571 4.76609 27.629 4.62207 27.7218C4.47756 27.8142 4.20461 27.8608 3.80273 27.8608H2.89087V24.3705H3.80273C4.03975 24.3705 4.24848 24.3915 4.42876 24.4326C4.60903 24.4739 4.75846 24.556 4.87706 24.6796C4.99533 24.8032 5.08579 24.9785 5.14763 25.2048C5.20931 25.4316 5.24031 25.7299 5.24031 26.1006C5.24015 26.8006 5.12664 27.2688 4.90027 27.5055Z" fill="#020000"/>
<path d="M13.9421 24.3706V22.919H9.22778V34.2999H13.9421V32.8483H10.6806V29.3276H13.9421V27.8761H10.6806V24.3706H13.9421Z" fill="#020000"/>
<path d="M21.5312 22.9038L18.3007 27.8762V22.9038H16.8477V30.1308L16.8323 30.1617H16.8477V34.2845H18.3007V30.5629L18.9035 29.6211L21.5002 34.2845H23.1695L19.8154 28.2314L23.2778 22.9038H21.5312Z" fill="#020000"/>
<path d="M27.6267 22.919L24.999 34.2999H26.4984L27.2248 31.1186H29.2033L29.9298 34.2999H31.4445L28.786 22.919H27.6267ZM27.565 29.6675L28.2141 26.8722L28.8633 29.6675H27.565Z" fill="#020000"/>
<path d="M38.0288 28.6946C38.0596 28.6739 38.0881 28.6482 38.1139 28.6174C38.1394 28.5862 38.1627 28.5608 38.1835 28.54C38.6367 27.9945 38.8636 27.1964 38.8636 26.1466C38.8636 25.0865 38.6367 24.2935 38.1835 23.7684C37.6888 23.1921 36.9519 22.9038 35.9731 22.9038H33.6083V34.2842H35.0611V29.4202H35.2466H35.9731C36.9416 29.4202 37.426 29.9197 37.426 30.9182V34.2842H38.8944V30.9182C38.8944 30.4451 38.8195 30.0223 38.6703 29.6518C38.5207 29.2816 38.3072 28.9623 38.0288 28.6946ZM37.0707 27.5981C37.0293 27.6497 36.934 27.7216 36.7847 27.8141C36.6353 27.907 36.3648 27.9533 35.9733 27.9533H35.2468H35.0613V24.3704H35.9733C36.2103 24.3704 36.4189 24.3913 36.5993 24.4325C36.7794 24.4738 36.9289 24.5586 37.0475 24.6872C37.1657 24.816 37.2562 24.996 37.318 25.2275C37.3797 25.4592 37.4107 25.7658 37.4107 26.1463C37.4106 26.8259 37.2971 27.31 37.0707 27.5981Z" fill="#020000"/>
<path d="M41.9084 34.2999H46.6229V32.8483H43.3614V29.3276H46.6229V27.8761H43.3614V24.3706H46.6229V22.919H41.9084V34.2999Z" fill="#020000"/>
<path d="M53.5167 29.7911L50.7346 22.9038H49.5132V34.2845H50.9663V27.3975L53.7485 34.2845H54.9848V22.9038H53.5167V29.7911Z" fill="#020000"/>
<path d="M61.9786 23.1973C61.654 23.002 61.2135 22.9038 60.6571 22.9038C60.2552 22.9038 59.8864 22.9839 59.552 23.1432C59.2168 23.3028 58.9283 23.5242 58.6865 23.8074C58.4441 24.0904 58.2589 24.4328 58.1301 24.8341C58.001 25.2355 57.9368 25.6783 57.9368 26.162C57.9368 27.0886 58.2458 27.8507 58.8642 28.4476C59.1114 28.6846 59.3612 28.8674 59.614 28.9958C59.8662 29.1248 60.0748 29.2249 60.24 29.297L60.5179 29.4205C60.6826 29.4926 60.8474 29.5724 61.0126 29.6599C61.1771 29.7474 61.3269 29.8552 61.4607 29.984C61.5944 30.1128 61.7027 30.2699 61.7855 30.4551C61.8677 30.6403 61.9092 30.8669 61.9092 31.1347C61.9092 31.289 61.896 31.4666 61.8705 31.6672C61.8446 31.8683 61.7876 32.0534 61.7003 32.2232C61.6129 32.393 61.4863 32.5375 61.3218 32.6555C61.1566 32.7742 60.9353 32.8331 60.657 32.8331C60.3686 32.8331 60.1568 32.7948 60.0233 32.7175C59.8893 32.6401 59.7964 32.5655 59.7449 32.4935C59.5078 32.2054 59.3896 31.7268 59.3896 31.0575V30.3314H57.9366V31.0575C57.9366 32.0765 58.1581 32.859 58.6013 33.4045C59.0649 33.991 59.7503 34.2845 60.6571 34.2845C61.5329 34.2845 62.2235 33.9606 62.728 33.3121C63.1611 32.7354 63.3774 32.0098 63.3774 31.1347C63.3774 30.2081 63.0579 29.4512 62.4192 28.8645C62.1718 28.6279 61.9221 28.4505 61.6694 28.3318C61.4167 28.2135 61.2186 28.1233 61.0744 28.0615L60.8269 27.9537C60.6414 27.8817 60.4638 27.7966 60.2937 27.6988C60.1238 27.6012 59.9715 27.4828 59.8378 27.3438C59.7038 27.2047 59.5957 27.0403 59.5132 26.8495C59.4303 26.6591 59.3896 26.4301 59.3896 26.1623C59.3896 26.0597 59.3997 25.9077 59.4206 25.707C59.4412 25.5063 59.495 25.3055 59.5828 25.1046C59.6704 24.904 59.7966 24.7315 59.9616 24.5873C60.126 24.4434 60.3579 24.3712 60.6571 24.3712C60.7598 24.3712 60.8838 24.3815 61.028 24.4021C61.1722 24.4228 61.3111 24.4869 61.4456 24.5953C61.5793 24.7034 61.6903 24.8808 61.7779 25.1279C61.8651 25.3747 61.9093 25.72 61.9093 26.1623V26.8881H63.3774V26.1623C63.3774 25.1537 63.1557 24.3661 62.7128 23.7997C62.5479 23.5937 62.3031 23.3928 61.9786 23.1973Z" fill="#020000"/>
<path d="M70.6269 22.9038L67.3964 27.8762V22.9038H65.9436V30.1308L65.928 30.1617H65.9436V34.2845H67.3964V30.5629L67.9994 29.6211L70.596 34.2845H72.2654L68.9111 28.2314L72.3736 22.9038H70.6269Z" fill="#020000"/>
<path d="M78.2313 27.0887L75.9281 22.9194H74.2589L77.5046 28.787V34.3001H78.9576V28.787L82.2191 22.9194H80.5497L78.2313 27.0887Z" fill="#020000"/>
<path d="M28.9458 22.1353L29.5817 19.4353H28.4689L27.833 22.1353H28.9458Z" fill="#020000"/>
<path d="M79.2432 19.4353H78.1304L77.4945 22.1353H78.6073L79.2432 19.4353Z" fill="#020000"/>
<path d="M11.8476 54.2476L9.94644 46.6038H8.44702L11.2756 57.9845H12.4196L15.279 46.6038H13.7796L11.8476 54.2476Z" fill="#020000"/>
<path d="M21.0753 54.958C21.0753 55.3495 21.0366 55.6529 20.9592 55.869C20.8819 56.085 20.7866 56.2424 20.6734 56.3401C20.5599 56.4381 20.4414 56.4946 20.3179 56.5097C20.1941 56.5253 20.0807 56.5329 19.9777 56.5329C19.8747 56.5329 19.7615 56.5251 19.6377 56.5097C19.514 56.4945 19.3954 56.4381 19.2822 56.3401C19.1687 56.2424 19.0736 56.0852 18.9962 55.869C18.919 55.6529 18.8803 55.3495 18.8803 54.958V46.6038H17.4275V54.958C17.4275 55.9052 17.6334 56.6312 18.0457 57.1351C18.2002 57.3414 18.432 57.5344 18.7412 57.7142C19.0504 57.8946 19.4625 57.9845 19.9777 57.9845C20.4929 57.9845 20.9052 57.8946 21.2144 57.7142C21.5236 57.5342 21.7553 57.3413 21.9099 57.1351C22.3219 56.6312 22.5281 55.9052 22.5281 54.958V46.6038H21.0753V54.958Z" fill="#020000"/>
<path d="M29.9629 52.3945C29.9938 52.3741 30.0221 52.3481 30.048 52.3173C30.0734 52.2862 30.0968 52.2608 30.1174 52.2403C30.5707 51.6944 30.7975 50.8964 30.7975 49.8466C30.7975 48.7865 30.5707 47.9936 30.1174 47.4684C29.6229 46.8921 28.8859 46.6038 27.9071 46.6038H25.5422V57.9845H26.9952V53.1202H27.1806H27.9071C28.8757 53.1202 29.3601 53.6198 29.3601 54.6182V57.9845H30.8284V54.6182C30.8284 54.145 30.7536 53.7223 30.6044 53.3519C30.4548 52.9814 30.2411 52.6622 29.9629 52.3945ZM29.0045 51.298C28.9633 51.3497 28.8678 51.4216 28.7185 51.514C28.5692 51.6068 28.2986 51.6532 27.9071 51.6532H27.1806H26.9952V48.0702H27.9071C28.1441 48.0702 28.3527 48.0913 28.5331 48.1324C28.7132 48.1736 28.8627 48.2585 28.9814 48.3872C29.0997 48.5161 29.19 48.6959 29.2518 48.9275C29.3137 49.1592 29.3445 49.4659 29.3445 49.8463C29.3445 50.5259 29.231 51.0101 29.0045 51.298Z" fill="#020000"/>
<path d="M20.0355 45.6404C20.9135 45.6404 21.6252 44.9292 21.6252 44.0522C21.6252 43.1752 20.9135 42.464 20.0355 42.464C19.1575 42.464 18.4458 43.1752 18.4458 44.0522C18.4458 44.9292 19.1575 45.6404 20.0355 45.6404ZM20.0355 43.2997C20.4514 43.2997 20.7886 43.6365 20.7886 44.0522C20.7886 44.4676 20.4514 44.8043 20.0355 44.8043C19.6196 44.8043 19.2825 44.4676 19.2825 44.0522C19.2825 43.6365 19.6196 43.2997 20.0355 43.2997Z" fill="#020000"/>
</svg>
