<?xml version="1.0" encoding="utf-8"?>
<!-- Generator: Adobe Illustrator 16.0.0, SVG Export Plug-In . SVG Version: 6.00 Build 0)  -->
<!DOCTYPE svg PUBLIC "-//W3C//DTD SVG 1.1//EN" "http://www.w3.org/Graphics/SVG/1.1/DTD/svg11.dtd">
<svg version="1.1" id="Vrstva_1" xmlns="http://www.w3.org/2000/svg" xmlns:xlink="http://www.w3.org/1999/xlink" x="0px" y="0px"
	 width="150px" height="150px" viewBox="0 0 150 150" enable-background="new 0 0 150 150" xml:space="preserve">
<path fill="none" stroke="#FFFFFF" stroke-width="5" stroke-miterlimit="10" d="M135.173,33.542
	c-0.015-11.378-7.437-18.737-18.848-18.748c-27.397-0.022-54.797-0.022-82.196,0c-11.521,0.007-18.905,7.399-18.913,18.95
	c-0.026,27.311-0.026,54.622-0.004,81.928c0.007,11.738,7.333,19.067,19.045,19.086c10.354,0.02,20.704,0.004,31.062,0.004h2.727
	V92.309H54.154c0-6.553-0.004-12.781,0.011-19.017c0-0.602,0.128-1.204,0.238-2.133h13.808c0-5.142-0.07-9.943,0.015-14.744
	C68.38,47.628,74.48,39.4,82.878,37.032c9.011-2.54,18.238-0.543,27.479-1.292v21.354h-20.99v14.098h21.199
	c-1.034,6.207-2.162,12.064-2.918,17.973c-0.33,2.61-1.262,3.377-3.857,3.252c-4.773-0.231-9.568-0.063-14.398-0.063v42.407
	c9.113,0,18.025,0.021,26.938-0.004c11.411-0.036,18.829-7.37,18.844-18.748C135.205,88.52,135.205,61.033,135.173,33.542z"/>
</svg>
