<svg width="23" height="23" viewBox="0 0 23 23" fill="none" xmlns="http://www.w3.org/2000/svg">
<path d="M6.10059 0C6.78491 5.23302e-05 7.3445 0.559856 7.34473 1.24414C7.34473 2.79982 7.59421 4.29361 8.05469 5.6875C8.19159 6.12309 8.09164 6.60856 7.74316 6.95703L5.00488 9.69531C6.79704 13.2174 9.68496 16.0919 13.207 17.8965L15.9453 15.1582C16.194 14.9221 16.5049 14.798 16.8281 14.7979C16.9525 14.7979 17.0895 14.8107 17.2139 14.8604C18.6077 15.3208 20.114 15.5693 21.6572 15.5693C22.3416 15.5693 22.9021 16.1292 22.9023 16.8135V21.1572C22.9023 21.8417 22.3417 22.4023 21.6572 22.4023C9.97095 22.4022 0.5 12.9304 0.5 1.24414C0.500225 0.559961 1.05996 0.000225011 1.74414 0H6.10059ZM15.6816 18.9297C17.1875 19.4275 18.7683 19.7513 20.4111 19.8633V18.0088C19.4529 17.9435 18.504 17.7925 17.5732 17.5557L17.1748 17.4482L15.6816 18.9297ZM3.02344 2.48926C3.13546 4.13201 3.45948 5.71264 3.96973 7.20605L5.46289 5.71289C5.20154 4.80904 5.02539 3.86672 4.93555 2.90332L4.90234 2.48926H3.02344Z" fill="white"/>
</svg>
