<?xml version="1.0" encoding="utf-8"?>
<!-- Generator: Adobe Illustrator 16.0.0, SVG Export Plug-In . SVG Version: 6.00 Build 0)  -->
<!DOCTYPE svg PUBLIC "-//W3C//DTD SVG 1.1//EN" "http://www.w3.org/Graphics/SVG/1.1/DTD/svg11.dtd">
<svg version="1.1" id="Vrstva_1" xmlns="http://www.w3.org/2000/svg" xmlns:xlink="http://www.w3.org/1999/xlink" x="0px" y="0px"
	 width="150px" height="150px" viewBox="0 0 150 150" enable-background="new 0 0 150 150" xml:space="preserve">
<path fill="none" stroke="#FFFFFF" stroke-width="5" d="M32.886,14.777c0,0-17.559,0-17.559,17.56v84.874c0,0,0,17.56,17.559,17.56
	h84.882c0,0,17.559,0,17.559-17.56V32.337c0,0,0-17.56-17.559-17.56H32.886z"/>
<path fill="none" stroke="#FFFFFF" stroke-width="5" d="M75.325,106.075c17.292,0,31.303-14.016,31.303-31.299
	c0-17.292-14.012-31.307-31.303-31.307c-17.288,0-31.299,14.015-31.299,31.307C44.025,92.06,58.037,106.075,75.325,106.075z"/>
<circle fill="none" stroke="#FFFFFF" stroke-width="5" cx="112.919" cy="36.461" r="8.115"/>
</svg>
