<?xml version="1.0" encoding="utf-8"?>
<!-- Generator: Adobe Illustrator 16.0.3, SVG Export Plug-In . SVG Version: 6.00 Build 0)  -->
<!DOCTYPE svg PUBLIC "-//W3C//DTD SVG 1.1//EN" "http://www.w3.org/Graphics/SVG/1.1/DTD/svg11.dtd">
<svg version="1.1" id="Vrstva_1" xmlns="http://www.w3.org/2000/svg" xmlns:xlink="http://www.w3.org/1999/xlink" x="0px" y="0px"
	 width="150px" height="150px" viewBox="0 0 150 150" enable-background="new 0 0 150 150" xml:space="preserve">
<path fill="none" stroke="#FFFFFF" stroke-width="5" stroke-miterlimit="10" d="M116.331,134.757
	c11.411-0.036,18.829-7.37,18.844-18.748c0.03-27.489,0.03-54.976-0.002-82.467c-0.015-11.378-7.437-18.737-18.848-18.748
	c-27.397-0.022-54.797-0.022-82.196,0c-11.521,0.007-18.905,7.399-18.913,18.95c-0.026,27.311-0.026,54.622-0.004,81.928
	c0.007,11.738,7.333,19.067,19.045,19.086C44.611,134.777,108.088,134.78,116.331,134.757z"/>
<g>
	<g>
		<path fill-rule="evenodd" clip-rule="evenodd" fill="none" stroke="#FFFFFF" stroke-width="5" stroke-miterlimit="10" d="
			M117.446,116.34c0.042-0.664,0.099-1.172,0.099-1.682c-0.002-10.086,0.121-20.177-0.08-30.26
			c-0.083-4.152-0.461-8.391-1.427-12.417c-1.5-6.256-5.257-11.021-11.754-12.601c-9.233-2.246-17.703-1.119-24.035,6.972
			c-0.171,0.22-0.167,0.576-0.246,0.868c-0.233-0.141-0.468-0.281-0.701-0.421c0-2.263,0-4.523,0-6.873c-5.761,0-11.254,0-16.83,0
			c0,18.894,0,37.671,0,56.429c5.861,0,11.567,0,17.433,0c0-0.99-0.002-1.804,0-2.614c0-8.369-0.087-16.74,0.052-25.105
			c0.047-2.732,0.375-5.542,1.118-8.162c1.394-4.897,4.799-6.97,10.039-6.631c4.631,0.3,7.137,2.671,8.104,7.753
			c0.21,1.095,0.348,2.221,0.355,3.332c0.06,9.64,0.08,19.276,0.111,28.915c0.003,0.8,0.001,1.601,0.001,2.497
			C105.707,116.34,111.439,116.34,117.446,116.34z M33.606,59.854c0,18.998,0,37.709,0,56.49c5.885,0,11.601,0,17.394,0
			c0-18.896,0-37.671,0-56.49C45.117,59.854,39.395,59.854,33.606,59.854z M42.829,31.584c-5.707-0.142-10.422,4.262-10.57,9.876
			c-0.152,5.758,4.331,10.479,10.094,10.627c5.567,0.144,10.353-4.438,10.489-10.037C52.979,36.438,48.468,31.724,42.829,31.584z"/>
	</g>
</g>
</svg>
